<?xml version="1.0" encoding="UTF-8" standalone="no"?>
<!-- Created with Inkscape (http://www.inkscape.org/) -->
<svg
   xmlns:svg="http://www.w3.org/2000/svg"
   xmlns="http://www.w3.org/2000/svg"
   xmlns:xlink="http://www.w3.org/1999/xlink"
   version="1.0"
   width="650"
   height="350"
   id="svg2031">
  <defs
     id="defs2033">
    <linearGradient
       id="linearGradient4671">
      <stop
         style="stop-color:#ffc836;stop-opacity:1"
         offset="0"
         id="stop4673" />
      <stop
         style="stop-color:#ffe873;stop-opacity:1"
         offset="1"
         id="stop4675" />
    </linearGradient>
    <linearGradient
       x1="224.23996"
       y1="144.75717"
       x2="-65.308502"
       y2="144.75717"
       id="linearGradient1874"
       xlink:href="#linearGradient4671"
       gradientUnits="userSpaceOnUse" />
    <linearGradient
       id="linearGradient4689">
      <stop
         style="stop-color:#366a96;stop-opacity:1"
         offset="0"
         id="stop4691" />
      <stop
         style="stop-color:#3679b0;stop-opacity:1"
         offset="1"
         id="stop4693" />
    </linearGradient>
    <linearGradient
       x1="172.94208"
       y1="77.475983"
       x2="26.670298"
       y2="76.313133"
       id="linearGradient1872"
       xlink:href="#linearGradient4689"
       gradientUnits="userSpaceOnUse" />
  </defs>
  <g
     id="layer1">
    <g
       transform="matrix(1.200851,0,0,1.200851,-25.00003,33.18467)"
       id="g1858">
      <g
         transform="translate(2.702726,-34.93942)"
         id="g2574">
        <path
           d="M 289.25185,74.344622 C 289.25185,59.782469 285.09959,52.306451 276.79507,51.897073 C 273.4908,51.74112 270.26452,52.267463 267.12595,53.485849 C 264.62095,54.382581 262.93471,55.269566 262.04772,56.166299 L 262.04772,90.924422 C 267.35988,94.257926 272.07748,95.807714 276.19075,95.564037 C 284.8949,94.988958 289.25185,87.922318 289.25185,74.344622 z M 299.49604,74.948941 C 299.49604,82.346982 297.76106,88.487649 294.2716,93.370941 C 290.38251,98.897541 284.99237,101.74369 278.10118,101.89965 C 272.90598,102.06535 267.55483,100.43758 262.04772,97.0261 L 262.04772,128.61642 L 253.13888,125.43887 L 253.13888,55.318302 C 254.60094,53.524837 256.48213,51.984797 258.76295,50.678687 C 264.06537,47.58886 270.50819,46.000084 278.09143,45.922107 L 278.21814,46.048819 C 285.14832,45.961095 290.48973,48.807246 294.24236,54.577523 C 297.74156,59.870193 299.49604,66.654168 299.49604,74.948941 z "
           style="fill:#646464;fill-opacity:1"
           id="path46" />
        <path
           d="M 353.94328,95.681002 C 353.94328,105.60354 352.94908,112.47524 350.96068,116.2961 C 348.96252,120.11696 345.16116,123.1678 339.54683,125.43887 C 334.99494,127.23233 330.07266,128.20704 324.78974,128.37274 L 323.31793,122.75842 C 328.68857,122.02739 332.47045,121.29635 334.66354,120.56532 C 338.9815,119.10326 341.94462,116.86143 343.57238,113.85932 C 344.87849,111.4128 345.5218,106.74395 345.5218,99.833262 L 345.5218,97.513455 C 339.42987,100.28163 333.04552,101.65597 326.36877,101.65597 C 321.98258,101.65597 318.11298,100.28163 314.77948,97.513455 C 311.03659,94.501604 309.16515,90.680744 309.16515,86.050877 L 309.16515,48.972946 L 318.07399,45.922107 L 318.07399,83.243715 C 318.07399,87.230275 319.36061,90.300608 321.93384,92.454715 C 324.50707,94.608822 327.84058,95.642013 331.92461,95.564037 C 336.00864,95.476313 340.38508,93.897284 345.03444,90.807457 L 345.03444,47.267206 L 353.94328,47.267206 L 353.94328,95.681002 z "
           style="fill:#646464;fill-opacity:1"
           id="path48" />
        <path
           d="M 388.7209,101.41229 C 387.65847,101.50001 386.68376,101.539 385.78703,101.539 C 380.74778,101.539 376.81971,100.34011 374.01254,97.932579 C 371.21513,95.525048 369.81155,92.20129 369.81155,87.961306 L 369.81155,52.871782 L 363.70987,52.871782 L 363.70987,47.267206 L 369.81155,47.267206 L 369.81155,32.383399 L 378.71064,29.215595 L 378.71064,47.267206 L 388.7209,47.267206 L 388.7209,52.871782 L 378.71064,52.871782 L 378.71064,87.717629 C 378.71064,91.060881 379.60737,93.429424 381.40084,94.813511 C 382.94088,95.95392 385.3874,96.606975 388.7209,96.772676 L 388.7209,101.41229 z "
           style="fill:#646464;fill-opacity:1"
           id="path50" />
        <path
           d="M 442.6613,100.68126 L 433.75246,100.68126 L 433.75246,66.293525 C 433.75246,62.79432 432.9337,59.782469 431.30594,57.26772 C 429.42475,54.42157 426.81253,52.998494 423.45953,52.998494 C 419.3755,52.998494 414.26802,55.152601 408.13711,59.460815 L 408.13711,100.68126 L 399.22826,100.68126 L 399.22826,18.484049 L 408.13711,15.676887 L 408.13711,53.11546 C 413.82941,48.972946 420.04805,46.896816 426.80278,46.896816 C 431.52037,46.896816 435.34123,48.485592 438.26536,51.653396 C 441.19923,54.8212 442.6613,58.768772 442.6613,63.486363 L 442.6613,100.68126 L 442.6613,100.68126 z "
           style="fill:#646464;fill-opacity:1"
           id="path52" />
        <path
           d="M 490.01266,72.941041 C 490.01266,67.346211 488.95023,62.72609 486.83511,59.070932 C 484.32036,54.616511 480.41178,52.267463 475.12885,52.023785 C 465.36227,52.589117 460.48873,59.587527 460.48873,72.999523 C 460.48873,79.149937 461.50242,84.286653 463.54931,88.409672 C 466.16153,93.663354 470.07986,96.25608 475.3043,96.168356 C 485.10987,96.090379 490.01266,88.35119 490.01266,72.941041 z M 499.7695,72.999523 C 499.7695,80.962896 497.73236,87.590917 493.66782,92.883587 C 489.19391,98.809817 483.01425,101.78268 475.12885,101.78268 C 467.31169,101.78268 461.21976,98.809817 456.82382,92.883587 C 452.83726,87.590917 450.84885,80.962896 450.84885,72.999523 C 450.84885,65.513758 453.00296,59.217138 457.31117,54.090169 C 461.86307,48.651292 467.84778,45.922107 475.24582,45.922107 C 482.64386,45.922107 488.66756,48.651292 493.30718,54.090169 C 497.61539,59.217138 499.7695,65.513758 499.7695,72.999523 z "
           style="fill:#646464;fill-opacity:1"
           id="path54" />
        <path
           d="M 550.84425,100.68126 L 541.93541,100.68126 L 541.93541,64.344107 C 541.93541,60.357547 540.73652,57.248226 538.33873,55.006395 C 535.94095,52.774311 532.7439,51.692384 528.75734,51.780108 C 524.52711,51.858085 520.50156,53.242172 516.6807,55.922621 L 516.6807,100.68126 L 507.77186,100.68126 L 507.77186,54.8212 C 512.89883,51.088065 517.61642,48.651292 521.92463,47.510883 C 525.98917,46.44845 529.5761,45.922107 532.66593,45.922107 C 534.78105,45.922107 536.76945,46.126796 538.64089,46.536174 C 542.1401,47.345182 544.98625,48.846234 547.17934,51.049076 C 549.62586,53.485849 550.84425,56.409976 550.84425,59.831205 L 550.84425,100.68126 z "
           style="fill:#646464;fill-opacity:1"
           id="path56" />
        <path
           d="M 77.670359,47.068159 C 77.670359,33.445308 81.323118,26.033912 101.4927,22.504676 C 115.18614,20.104796 132.74409,19.804811 149.11974,22.504676 C 162.05439,24.639864 172.94208,34.274678 172.94208,47.068159 L 172.94208,92.012979 C 172.94208,105.19468 162.37202,115.99414 149.11974,115.99414 L 101.4927,115.99414 C 85.328801,115.99414 71.70595,129.7758 71.70595,145.35738 L 71.70595,166.92101 L 55.330295,166.92101 C 41.478043,166.92101 33.413739,156.93328 30.025673,142.9575 C 25.455312,124.18197 25.64942,112.99429 30.025673,95.01283 C 33.819601,79.325376 45.942527,71.049317 59.794778,71.049317 L 77.670359,71.049317 L 125.31504,71.049317 L 125.31504,65.049616 L 77.670359,65.049616 L 77.670359,47.068159 L 77.670359,47.068159 z "
           style="fill:url(#linearGradient1872);fill-opacity:1"
           id="path1948" />
        <path
           d="M 172.94208,190.90217 C 172.94208,204.52502 161.11914,211.42468 149.11974,214.86568 C 131.0677,220.05366 116.58019,219.25958 101.4927,214.86568 C 88.893329,211.19528 77.670359,203.69565 77.670359,190.90217 L 77.670359,145.95735 C 77.670359,133.0227 88.452174,121.97619 101.4927,121.97619 L 149.11974,121.97619 C 164.98366,121.97619 178.90649,108.26511 178.90649,92.012979 L 178.90649,71.049317 L 196.76443,71.049317 C 210.63432,71.049317 217.16341,81.354686 220.58677,95.01283 C 225.35124,113.98247 225.56299,128.17 220.58677,142.9575 C 215.76936,157.32149 210.61668,166.92101 196.76443,166.92101 L 172.94208,166.92101 L 125.31504,166.92101 L 125.31504,172.92071 L 172.94208,172.92071 L 172.94208,190.90217 z "
           style="fill:url(#linearGradient1874);fill-opacity:1"
           id="path1950" />
        <path
           d="M 293.10702,179.8036 C 293.10698,185.62023 291.73272,190.44611 288.98425,194.28123 C 285.91611,198.62772 281.6655,200.86488 276.23242,200.99272 C 272.14159,201.12056 267.92295,199.84218 263.57648,197.15758 L 263.57648,221.99008 L 256.67324,219.49725 L 256.76911,164.36718 C 257.91965,162.961 259.38978,161.74654 261.17952,160.7238 C 265.33423,158.29492 270.38382,157.0485 276.3283,156.98454 L 276.42418,157.08042 C 281.85726,157.01655 286.04394,159.25371 288.98425,163.79191 C 291.73272,167.94667 293.10698,173.28389 293.10702,179.8036 M 285.05324,179.32421 C 285.0532,167.88275 281.76138,162.00222 275.17776,161.68258 C 272.55706,161.55478 270.00031,161.97026 267.50749,162.929 C 265.52599,163.63215 264.18369,164.33525 263.4806,165.03833 L 263.4806,192.36367 C 267.69923,194.98435 271.43848,196.1988 274.69837,196.00704 C 281.60158,195.55962 285.0532,189.99868 285.05324,179.32421 M 337.37437,178.26954 C 337.37433,184.53361 335.77635,189.743 332.58045,193.89772 C 329.06487,198.5638 324.20704,200.89684 318.00693,200.89684 C 311.8707,200.89684 307.07679,198.5638 303.62518,193.89772 C 300.49315,189.743 298.92713,184.53361 298.92714,178.26954 C 298.92713,172.38903 300.62098,167.43532 304.00869,163.40839 C 307.58814,159.12587 312.28617,156.98459 318.10281,156.98454 C 323.91941,156.98459 328.6494,159.12587 332.29281,163.40839 C 335.68048,167.43532 337.37433,172.38903 337.37437,178.26954 M 329.7041,178.26954 C 329.70406,173.85916 328.87312,170.21579 327.21126,167.33941 C 325.22974,163.8239 322.16164,161.97026 318.00693,161.77846 C 310.33665,162.22593 306.50152,167.72295 306.50153,178.26954 L 306.59741,178.26954 C 306.5974,183.1274 307.39638,187.18625 308.99437,190.4461 C 311.03976,194.60083 314.10786,196.64624 318.19869,196.58231 C 325.86893,196.5184 329.70406,190.41415 329.7041,178.26954 M 398.15526,158.5186 L 386.74573,198.78752 L 380.99303,200.80096 L 369.96702,167.33941 L 360.95445,198.78752 L 355.20175,200.80096 L 341.6829,159.28562 L 348.10675,156.98454 L 358.84513,189.67907 L 367.3783,159.28562 L 373.80215,156.98454 L 384.63641,189.67907 L 393.84073,156.98454 L 398.15526,158.5186 M 435.94484,196.1988 C 433.26021,197.92461 430.86325,199.10711 428.75396,199.7463 C 426.19718,200.51333 423.60846,200.89684 420.98781,200.89684 C 416.32171,200.89684 412.61442,199.71434 409.86592,197.34934 C 404.88024,193.1307 402.41936,187.25016 402.48328,179.70772 C 402.5472,173.50761 403.82558,168.3941 406.31842,164.36718 C 409.3226,159.63722 413.66908,157.27222 419.35788,157.27218 C 429.96839,157.27222 435.36953,164.27134 435.56133,178.26954 L 409.86592,178.26954 C 409.4824,183.70267 410.5051,188.11307 412.93403,191.50076 C 415.36293,194.82455 418.55887,196.42252 422.52187,196.29468 C 425.84562,196.16684 429.77663,195.01631 434.31491,192.84306 L 435.94484,196.1988 M 428.5622,174.24265 C 428.56218,170.85498 427.85907,167.97863 426.45288,165.6136 C 424.79096,162.92904 422.52184,161.58674 419.64551,161.58671 C 413.8928,161.58674 410.69686,165.77343 410.05768,174.14677 L 428.5622,174.24265 M 469.87379,157.1763 C 469.23458,158.45472 468.30775,160.34033 467.09332,162.83312 C 465.30357,162.44965 463.99323,162.25789 463.16231,162.25785 L 463.06643,162.25785 C 459.23128,162.25789 455.81162,163.53627 452.80744,166.09299 L 452.80744,200.03394 L 445.80832,200.03394 L 445.80832,165.13421 C 448.42899,162.19397 451.75277,160.02073 455.77967,158.61448 C 459.29519,157.33614 462.42722,156.69695 465.17575,156.69691 C 466.70978,156.69695 468.27579,156.85675 469.87379,157.1763 M 508.04088,196.1988 C 505.35625,197.92461 502.95929,199.10711 500.85,199.7463 C 498.29322,200.51333 495.7045,200.89684 493.08385,200.89684 C 488.41775,200.89684 484.71046,199.71434 481.96196,197.34934 C 476.97628,193.1307 474.5154,187.25016 474.57932,179.70772 C 474.64324,173.50761 475.92162,168.3941 478.41446,164.36718 C 481.41864,159.63722 485.76512,157.27222 491.45392,157.27218 C 502.06443,157.27222 507.46557,164.27134 507.65736,178.26954 L 481.96196,178.26954 C 481.57844,183.70267 482.60114,188.11307 485.03007,191.50076 C 487.45897,194.82455 490.65491,196.42252 494.61791,196.29468 C 497.94166,196.16684 501.87267,195.01631 506.41095,192.84306 L 508.04088,196.1988 M 500.65824,174.24265 C 500.65821,170.85498 499.95511,167.97863 498.54892,165.6136 C 496.887,162.92904 494.61788,161.58674 491.74155,161.58671 C 485.98884,161.58674 482.79289,165.77343 482.15372,174.14677 L 500.65824,174.24265 M 551.74944,193.41833 C 545.48536,198.27617 538.77388,200.73704 531.61498,200.80096 C 526.3097,200.80096 522.12301,198.404 519.05492,193.61008 C 516.37032,189.45536 515.02802,184.56557 515.02802,178.94069 C 515.02802,173.31585 516.4662,168.36214 519.34255,164.07954 C 522.60241,159.28566 526.94889,156.92067 532.38201,156.98454 C 536.53672,156.98459 540.7234,158.00729 544.94208,160.05265 L 544.94208,135.41191 L 551.65356,133.11083 L 551.74944,193.41833 M 544.94208,192.6513 L 544.94208,165.42184 C 540.85124,162.86512 537.23982,161.58674 534.10782,161.58671 C 530.14483,161.58674 527.14064,163.66411 525.09525,167.8188 C 523.43335,171.14261 522.60241,175.0097 522.60242,179.42008 C 522.60241,183.63875 523.40139,187.31408 524.99938,190.4461 C 526.98085,194.53691 529.88915,196.58232 533.72431,196.58231 C 537.30374,196.58232 541.043,195.27198 544.94208,192.6513"
           transform="matrix(1,0,-1.851831e-2,1,0,0)"
           style="font-size:95.87837982px;font-style:normal;font-variant:normal;font-weight:normal;font-stretch:normal;text-align:start;line-height:100%;writing-mode:lr-tb;text-anchor:start;fill:#2e597d;fill-opacity:1;stroke:none;stroke-width:1px;stroke-linecap:butt;stroke-linejoin:miter;stroke-opacity:1;font-family:FluxRegular"
           id="text1662" />
      </g>
      <path
         d="M 29.373025,255.45391 L 29.373025,225.34424 L 33.37816,225.34424 L 33.37816,229.49169 C 35.316338,226.40145 37.722127,224.85633 40.595536,224.8563 C 43.102963,224.85633 45.075033,225.82542 46.511751,227.76358 C 47.961981,229.68824 48.687106,232.31766 48.687129,235.65187 C 48.687106,239.31139 47.83322,242.27289 46.125469,244.53636 C 44.417677,246.79984 42.181309,247.93157 39.416359,247.93158 C 37.04444,247.93157 35.031709,246.9286 33.37816,244.92264 L 33.37816,255.45391 L 29.373025,255.45391 M 33.37816,241.91371 C 35.235015,243.91967 37.064771,244.92264 38.867432,244.92264 C 40.629405,244.92264 41.991556,244.15008 42.953889,242.60495 C 43.929742,241.04627 44.417677,238.8709 44.417695,236.07881 C 44.417677,230.87419 42.865773,228.27187 39.76198,228.27185 C 37.49849,228.27187 35.370553,229.68146 33.37816,232.50062 L 33.37816,241.91371 M 57.124343,247.42331 L 57.124343,225.34424 L 61.129478,225.34424 L 61.129478,229.49169 C 63.162529,226.40145 65.893609,224.85633 69.322724,224.8563 C 70.528989,224.85633 71.897917,225.02575 73.429513,225.36457 L 73.429513,231.62641 L 70.420579,231.62641 L 70.420579,228.55648 C 69.824194,228.42096 69.282045,228.35319 68.794128,228.35317 C 67.262537,228.35319 65.913939,228.71237 64.748331,229.4307 C 63.596249,230.13551 62.389966,231.34179 61.129478,233.04955 L 61.129478,247.42331 L 57.124343,247.42331 M 87.538974,247.42331 L 87.538974,228.35317 L 79.508373,228.35317 L 79.508373,225.34424 L 91.544109,225.34424 L 91.544109,247.42331 L 87.538974,247.42331 M 87.030708,220.3429 L 87.030708,215.32124 L 92.052375,215.32124 L 92.052375,220.3429 L 87.030708,220.3429 M 104.82002,247.42331 L 104.82002,225.34424 L 108.82515,225.34424 L 108.82515,229.49169 C 110.66845,226.40145 113.1759,224.85633 116.34749,224.8563 C 120.53558,224.85633 122.62963,227.34344 122.62966,232.31765 L 122.62966,247.42331 L 118.62452,247.42331 L 118.62452,233.4155 C 118.6245,231.69419 118.35343,230.47435 117.81129,229.75599 C 117.28268,229.0241 116.38813,228.65815 115.12765,228.65813 C 113.12168,228.65815 111.02085,230.10162 108.82515,232.98856 L 108.82515,247.42331 L 104.82002,247.42331 M 148.65287,247.40298 C 146.64689,247.75538 144.7087,247.93157 142.8383,247.93158 C 139.57183,247.93157 137.34902,247.34876 136.16985,246.18314 C 134.99067,245.00397 134.40108,242.78115 134.40109,239.51469 L 134.40109,228.86144 L 128.89149,228.86144 L 128.89149,225.8525 L 134.40109,225.8525 L 134.40109,221.09514 L 138.42656,221.09514 L 138.42656,225.8525 L 148.20559,225.8525 L 148.20559,228.86144 L 138.42656,228.86144 L 138.42656,240.16527 C 138.42654,241.42578 138.50109,242.29322 138.65019,242.76759 C 138.81283,243.24198 139.15167,243.65537 139.66672,244.00776 C 140.58837,244.61768 141.93019,244.92264 143.69219,244.92264 C 145.35928,244.92264 147.01284,244.73289 148.65287,244.35338 L 148.65287,247.40298"
         style="font-size:41.63714218px;font-style:normal;font-variant:normal;font-weight:normal;font-stretch:normal;text-indent:0;text-align:start;text-decoration:none;line-height:125%;letter-spacing:normal;word-spacing:normal;text-transform:none;direction:ltr;block-progression:tb;writing-mode:lr-tb;text-anchor:start;color:#000000;fill:#ff8c00;fill-opacity:1;fill-rule:nonzero;stroke:none;stroke-width:1.19012201px;stroke-linecap:butt;stroke-linejoin:miter;marker:none;marker-start:none;marker-mid:none;marker-end:none;stroke-miterlimit:4;stroke-dashoffset:0;stroke-opacity:1;visibility:visible;display:inline;overflow:visible;font-family:Lucida Console"
         id="text1844" />
      <path
         d="M 187.69717,227.86521 L 186.70097,216.82568 L 191.72264,216.82568 L 190.70611,227.86521 L 187.69717,227.86521 M 197.74051,227.86521 L 196.72398,216.82568 L 201.74564,216.82568 L 200.74944,227.86521 L 197.74051,227.86521 M 209.81691,248.92775 L 209.81691,222.84354 L 213.82204,222.84354 L 213.82204,234.24903 L 224.86158,234.24903 L 224.86158,222.84354 L 228.88704,222.84354 L 228.88704,248.92775 L 224.86158,248.92775 L 224.86158,237.25796 L 213.82204,237.25796 L 213.82204,248.92775 L 209.81691,248.92775 M 254.25968,248.05353 C 251.48114,248.97519 248.93303,249.43602 246.61536,249.43602 C 242.82029,249.43602 239.89946,248.46015 237.85285,246.5084 C 235.81979,244.55667 234.80325,241.7646 234.80326,238.13218 C 234.80325,234.7031 235.77912,231.88392 237.73087,229.67464 C 239.69616,227.4654 242.19004,226.36077 245.21254,226.36074 C 248.26212,226.36077 250.50527,227.27564 251.94198,229.10538 C 253.39221,230.93515 254.11734,233.78144 254.11736,237.64425 L 254.11736,238.92508 L 239.07269,238.92508 C 239.37087,243.92642 242.06806,246.42708 247.16428,246.42708 C 249.31931,246.42708 251.68444,245.91204 254.25968,244.88195 L 254.25968,248.05353 M 239.19467,235.91614 L 249.84793,235.91614 L 249.84793,235.34688 C 249.84791,231.3621 248.18758,229.3697 244.86692,229.36968 C 243.26757,229.3697 241.96641,229.94573 240.96344,231.09778 C 239.97401,232.24987 239.38442,233.85599 239.19467,235.91614 M 269.10104,248.92775 L 269.10104,219.83461 L 260.58251,219.83461 L 260.58251,216.82568 L 273.12651,216.82568 L 273.12651,248.92775 L 269.10104,248.92775 M 294.22971,248.92775 L 294.22971,219.83461 L 285.71117,219.83461 L 285.71117,216.82568 L 298.25517,216.82568 L 298.25517,248.92775 L 294.22971,248.92775 M 319.86663,249.43602 C 316.62728,249.43602 314.07917,248.41271 312.22232,246.36609 C 310.379,244.30592 309.45735,241.47997 309.45735,237.88821 C 309.45735,234.31004 310.38578,231.49764 312.24265,229.451 C 314.0995,227.39085 316.64083,226.36077 319.86663,226.36074 C 323.10597,226.36077 325.64729,227.39085 327.49062,229.451 C 329.34747,231.49764 330.2759,234.31004 330.27592,237.88821 C 330.2759,241.47997 329.34747,244.30592 327.49062,246.36609 C 325.64729,248.41271 323.10597,249.43602 319.86663,249.43602 M 319.86663,246.42708 C 321.79125,246.42708 323.29572,245.67485 324.38004,244.17038 C 325.46432,242.66592 326.00647,240.57187 326.00649,237.88821 C 326.00647,235.21814 325.46432,233.13086 324.38004,231.62638 C 323.29572,230.12193 321.79125,229.3697 319.86663,229.36968 C 317.94199,229.3697 316.43752,230.12193 315.35323,231.62638 C 314.26893,233.13086 313.72678,235.21814 313.72678,237.88821 C 313.72678,240.57187 314.26893,242.66592 315.35323,244.17038 C 316.43752,245.67485 317.94199,246.42708 319.86663,246.42708 M 341.98638,255.45388 L 341.98638,253.44115 C 343.36885,253.25139 344.1753,252.05189 344.40572,249.84263 L 344.48705,248.92775 L 341.98638,248.92775 L 341.98638,242.90988 L 348.00425,242.90988 L 348.00425,246.54907 C 348.00423,252.26875 345.99828,255.23702 341.98638,255.45388 M 386.97807,248.92775 L 382.9526,226.84868 L 386.65278,226.84868 L 389.58039,244.12972 L 389.62105,244.12972 L 393.54486,228.86141 L 397.42801,228.86141 L 401.14852,244.71931 L 401.20951,244.71931 L 404.46241,226.84868 L 407.53234,226.84868 L 403.12059,248.92775 L 399.17645,248.92775 L 395.2933,232.41927 L 395.25264,232.41927 L 390.96287,248.92775 L 386.97807,248.92775 M 420.3813,249.43602 C 417.14194,249.43602 414.59384,248.41271 412.73698,246.36609 C 410.89366,244.30592 409.97201,241.47997 409.97201,237.88821 C 409.97201,234.31004 410.90044,231.49764 412.75731,229.451 C 414.61417,227.39085 417.15549,226.36077 420.3813,226.36074 C 423.62063,226.36077 426.16196,227.39085 428.00529,229.451 C 429.86213,231.49764 430.79056,234.31004 430.79058,237.88821 C 430.79056,241.47997 429.86213,244.30592 428.00529,246.36609 C 426.16196,248.41271 423.62063,249.43602 420.3813,249.43602 M 420.3813,246.42708 C 422.30592,246.42708 423.81038,245.67485 424.8947,244.17038 C 425.97898,242.66592 426.52113,240.57187 426.52115,237.88821 C 426.52113,235.21814 425.97898,233.13086 424.8947,231.62638 C 423.81038,230.12193 422.30592,229.3697 420.3813,229.36968 C 418.45665,229.3697 416.95219,230.12193 415.8679,231.62638 C 414.78359,233.13086 414.24144,235.21814 414.24145,237.88821 C 414.24144,240.57187 414.78359,242.66592 415.8679,244.17038 C 416.95219,245.67485 418.45665,246.42708 420.3813,246.42708 M 439.22779,248.92775 L 439.22779,226.84868 L 443.23293,226.84868 L 443.23293,230.99613 C 445.26598,227.90589 447.99706,226.36077 451.42617,226.36074 C 452.63244,226.36077 454.00137,226.53019 455.53296,226.86901 L 455.53296,233.13085 L 452.52403,233.13085 L 452.52403,230.06092 C 451.92765,229.9254 451.3855,229.85763 450.89758,229.85761 C 449.36599,229.85763 448.01739,230.21681 446.85178,230.93514 C 445.6997,231.63995 444.49342,232.84623 443.23293,234.55399 L 443.23293,248.92775 L 439.22779,248.92775 M 470.13036,248.92775 L 470.13036,219.83461 L 461.61182,219.83461 L 461.61182,216.82568 L 474.15582,216.82568 L 474.15582,248.92775 L 470.13036,248.92775 M 501.11427,248.92775 L 501.11427,244.7803 C 499.16251,247.88411 496.74995,249.43602 493.87657,249.43602 C 491.38267,249.43602 489.4106,248.46692 487.96035,246.52873 C 486.52365,244.59055 485.8053,241.95435 485.8053,238.62012 C 485.8053,234.96062 486.65919,232.0059 488.36696,229.75596 C 490.07473,227.4925 492.3111,226.36077 495.07607,226.36074 C 497.44797,226.36077 499.4607,227.36374 501.11427,229.36968 L 501.11427,216.82568 L 505.11941,216.82568 L 505.11941,248.92775 L 501.11427,248.92775 M 501.11427,232.37861 C 499.24384,230.37267 497.41408,229.3697 495.625,229.36968 C 493.863,229.3697 492.49407,230.14226 491.51821,231.68737 C 490.55589,233.23251 490.07473,235.40789 490.07474,238.2135 C 490.07473,243.4046 491.62663,246.00014 494.73045,246.00014 C 496.99392,246.00014 499.12185,244.59055 501.11427,241.77137 L 501.11427,232.37861 M 519.37118,240.40921 L 518.88324,224.85628 L 518.88324,218.83841 L 522.88838,218.83841 L 522.88838,224.85628 L 522.38011,240.40921 L 519.37118,240.40921 M 518.37498,248.92775 L 518.37498,244.41435 L 523.39665,244.41435 L 523.39665,248.92775 L 518.37498,248.92775 M 539.4985,227.86521 L 538.5023,216.82568 L 543.52397,216.82568 L 542.50744,227.86521 L 539.4985,227.86521 M 549.54184,227.86521 L 548.52531,216.82568 L 553.54697,216.82568 L 552.55077,227.86521 L 549.54184,227.86521"
         style="font-size:41.63714218px;font-style:normal;font-variant:normal;font-weight:normal;font-stretch:normal;text-indent:0;text-align:start;text-decoration:none;line-height:125%;letter-spacing:normal;word-spacing:normal;text-transform:none;direction:ltr;block-progression:tb;writing-mode:lr-tb;text-anchor:start;color:#000000;fill:#4682b4;fill-opacity:1;fill-rule:nonzero;stroke:none;stroke-width:1.19012201px;stroke-linecap:butt;stroke-linejoin:miter;marker:none;marker-start:none;marker-mid:none;marker-end:none;stroke-miterlimit:4;stroke-dashoffset:0;stroke-opacity:1;visibility:visible;display:inline;overflow:visible;font-family:Lucida Console"
         id="text1848" />
    </g>
  </g>
</svg>
